<?xml version="1.0" encoding="utf-8"?>
<!-- Generator: Adobe Illustrator 15.0.0, SVG Export Plug-In . SVG Version: 6.00 Build 0)  -->
<!DOCTYPE svg PUBLIC "-//W3C//DTD SVG 1.1//EN" "http://www.w3.org/Graphics/SVG/1.1/DTD/svg11.dtd" [
	<!ENTITY ns_extend "http://ns.adobe.com/Extensibility/1.0/">
	<!ENTITY ns_ai "http://ns.adobe.com/AdobeIllustrator/10.0/">
	<!ENTITY ns_graphs "http://ns.adobe.com/Graphs/1.0/">
	<!ENTITY ns_vars "http://ns.adobe.com/Variables/1.0/">
	<!ENTITY ns_imrep "http://ns.adobe.com/ImageReplacement/1.0/">
	<!ENTITY ns_sfw "http://ns.adobe.com/SaveForWeb/1.0/">
	<!ENTITY ns_custom "http://ns.adobe.com/GenericCustomNamespace/1.0/">
	<!ENTITY ns_adobe_xpath "http://ns.adobe.com/XPath/1.0/">
]>
<svg version="1.1" xmlns:x="&ns_extend;" xmlns:i="&ns_ai;" xmlns:graph="&ns_graphs;"
	 xmlns="http://www.w3.org/2000/svg" xmlns:xlink="http://www.w3.org/1999/xlink" x="0px" y="0px" width="480px" height="24px"
	 viewBox="0 0 480 24" enable-background="new 0 0 480 24" xml:space="preserve">
<metadata>
	<sfw  xmlns="&ns_sfw;">
		<slices></slices>
		<sliceSourceBounds  height="25.623" width="506.998" y="585.941" x="356.514" bottomLeftOrigin="true"></sliceSourceBounds>
	</sfw>
</metadata>
<g id="test" display="none">
	<g display="inline">
		<g>
			<g>
				<linearGradient id="SVGID_1_" gradientUnits="userSpaceOnUse" x1="-14.9658" y1="0.6123" x2="-14.9658" y2="23.9546">
					<stop  offset="0.1292" style="stop-color:#FFFFFF"/>
					<stop  offset="0.4213" style="stop-color:#E3EBF4"/>
					<stop  offset="0.6124" style="stop-color:#C7D1E0"/>
					<stop  offset="1" style="stop-color:#909FB3"/>
				</linearGradient>
				<path fill="url(#SVGID_1_)" d="M-22.407,8.784h-2.97c-2.217,0-2.561,1.062-0.762,2.359l2.387,1.723l3.27,2.359l-1.254,3.832
					l-0.902,2.759c-0.689,2.108,0.218,2.771,2.016,1.473l2.388-1.723l3.27-2.36l3.269,2.36l2.388,1.723
					c1.798,1.298,2.705,0.635,2.016-1.473l-0.902-2.759l-1.254-3.832l3.27-2.359l2.388-1.723c1.798-1.297,1.455-2.359-0.763-2.359
					h-2.97h-4.031l-1.254-3.832l-0.902-2.759c-0.689-2.107-1.817-2.107-2.507,0l-0.902,2.759l-1.254,3.832H-22.407z"/>
			</g>
			<linearGradient id="SVGID_2_" gradientUnits="userSpaceOnUse" x1="-16.8066" y1="5.541" x2="-15.5267" y2="11.6674">
				<stop  offset="0" style="stop-color:#F0FCFF"/>
				<stop  offset="1" style="stop-color:#CCD6E5"/>
			</linearGradient>
			<path fill="url(#SVGID_2_)" d="M-15.531,0.892c-0.252,0.257-0.488,0.69-0.688,1.301l-0.902,2.759l-1.254,3.832l2.296,2.999
				L-15.531,0.892z"/>
			<linearGradient id="SVGID_3_" gradientUnits="userSpaceOnUse" x1="-13.1543" y1="5.8232" x2="-14.5407" y2="12.6446">
				<stop  offset="0" style="stop-color:#F0FCFF"/>
				<stop  offset="1" style="stop-color:#C7D1E0"/>
			</linearGradient>
			<path fill="url(#SVGID_3_)" d="M-14.152,12.854l2.596-4.07l-1.254-3.832l-0.902-2.759c-0.189-0.579-0.412-0.999-0.649-1.26
				L-14.152,12.854z"/>
			<linearGradient id="SVGID_4_" gradientUnits="userSpaceOnUse" x1="-21.6621" y1="8.9551" x2="-17.8835" y2="11.9684">
				<stop  offset="0" style="stop-color:#F0FCFF"/>
				<stop  offset="1" style="stop-color:#C7D1E0"/>
			</linearGradient>
			<polygon fill="url(#SVGID_4_)" points="-18.376,8.784 -22.407,8.784 -25.377,8.784 -15.663,12.886 			"/>
			
				<linearGradient id="SVGID_5_" gradientUnits="userSpaceOnUse" x1="6758.8262" y1="8.7842" x2="6758.8262" y2="12.854" gradientTransform="matrix(-1 0 0 1 6749.4727 0)">
				<stop  offset="0" style="stop-color:#F0FCFF"/>
				<stop  offset="1" style="stop-color:#C7D1E0"/>
			</linearGradient>
			<polygon fill="url(#SVGID_5_)" points="-11.557,8.784 -7.525,8.784 -4.556,8.784 -14.152,12.854 			"/>
			<linearGradient id="SVGID_6_" gradientUnits="userSpaceOnUse" x1="-14.6055" y1="10.2524" x2="-14.6055" y2="14.2965">
				<stop  offset="0" style="stop-color:#FCFCF4"/>
				<stop  offset="1" style="stop-color:#DBE4EF"/>
			</linearGradient>
			<path fill="url(#SVGID_6_)" d="M-14.362,0.933l0.146,12.044l9.66-4.193l1.244,0.164l-11.672,5.495l-10.916-5.636h1.541
				l8.692,4.205l0.218-12.197c0.282-0.242,0.582-0.267,0.868-0.074"/>
			<linearGradient id="SVGID_7_" gradientUnits="userSpaceOnUse" x1="-22.6973" y1="22.3125" x2="-22.6973" y2="8.8564">
				<stop  offset="0" style="stop-color:#A0AFC4"/>
				<stop  offset="0.5169" style="stop-color:#7C889A"/>
			</linearGradient>
			<path fill="url(#SVGID_7_)" d="M-22.667,22.313l4.564-7.188c0,0-7.609-4.216-8.311-4.671s-1.258-0.975,0.148-1.597
				c-1.385,0.259-1.396,1.189,0.126,2.287l6.065,3.946L-22.667,22.313z"/>
			<linearGradient id="SVGID_8_" gradientUnits="userSpaceOnUse" x1="-17.3994" y1="20.707" x2="-18.2696" y2="19.67">
				<stop  offset="0" style="stop-color:#D0DAE7"/>
				<stop  offset="0.35" style="stop-color:#9DABC2"/>
			</linearGradient>
			<polygon fill="url(#SVGID_8_)" points="-14.966,16.641 -20.964,23.426 -14.976,19.06 			"/>
			
				<linearGradient id="SVGID_9_" gradientUnits="userSpaceOnUse" x1="6771.3262" y1="22.3125" x2="6771.3262" y2="8.8564" gradientTransform="matrix(-1 0 0 1 6764.2969 0)">
				<stop  offset="0" style="stop-color:#A0AFC4"/>
				<stop  offset="0.5169" style="stop-color:#7C889A"/>
			</linearGradient>
			<path fill="url(#SVGID_9_)" d="M-7.4,22.313l-3.882-7.188c0,0,6.825-4.182,7.526-4.637c0.7-0.456,1.256-1.009-0.047-1.631
				c1.385,0.259,1.396,1.189-0.125,2.287l-5.896,3.98L-7.4,22.313z"/>
			
				<linearGradient id="SVGID_10_" gradientUnits="userSpaceOnUse" x1="6776.835" y1="20.7148" x2="6775.959" y2="19.6706" gradientTransform="matrix(-1 0 0 1 6764.2969 0)">
				<stop  offset="0" style="stop-color:#D0DAE7"/>
				<stop  offset="0.35" style="stop-color:#9DABC2"/>
			</linearGradient>
			<polygon fill="url(#SVGID_10_)" points="-14.966,16.641 -8.967,23.426 -14.976,19.06 			"/>
			<g>
				<path stroke="#000000" stroke-width="0.1509" d="M-22.407,8.682h-2.97c-1.12,0-1.825,0.271-1.984,0.764s0.254,1.125,1.162,1.781
					l2.388,1.723l3.27,2.359l-0.038-0.115l-1.253,3.832l-0.903,2.759c-0.348,1.065-0.308,1.82,0.112,2.127
					c0.421,0.308,1.152,0.115,2.062-0.54l2.387-1.723l3.27-2.359h-0.12l3.27,2.359l2.388,1.723c0.908,0.655,1.64,0.848,2.061,0.54
					c0.421-0.307,0.46-1.063,0.112-2.127L-8.1,19.026l-1.253-3.832l-0.037,0.115l3.269-2.359l2.388-1.723
					c0.908-0.656,1.321-1.288,1.162-1.781s-0.864-0.764-1.984-0.764h-2.97h-4.031l0.097,0.07l-1.253-3.832l-0.902-2.759
					c-0.349-1.065-0.828-1.651-1.351-1.651c-0.523,0-1.003,0.586-1.351,1.651L-17.22,4.92l-1.253,3.832l0.097-0.07H-22.407z
					 M-18.278,8.816l1.253-3.832l0.903-2.759c0.313-0.959,0.735-1.51,1.156-1.51s0.842,0.551,1.155,1.51l0.903,2.759l1.253,3.832
					l0.023,0.071h0.074h4.031h2.97c1.01,0,1.662,0.227,1.79,0.622s-0.269,0.961-1.088,1.552l-2.387,1.723l-3.27,2.359l-0.061,0.044
					l0.023,0.071l1.253,3.832l0.903,2.759c0.313,0.96,0.3,1.652-0.039,1.899c-0.338,0.247-1.001,0.05-1.82-0.541l-2.387-1.723
					l-3.27-2.36l-0.06-0.043l-0.061,0.043l-3.269,2.36l-2.388,1.723c-0.818,0.591-1.482,0.788-1.82,0.541
					c-0.339-0.247-0.353-0.939-0.038-1.899l0.902-2.759l1.253-3.832l0.023-0.071l-0.061-0.044l-3.27-2.359l-2.387-1.723
					c-0.819-0.591-1.215-1.157-1.087-1.552c0.127-0.396,0.779-0.622,1.789-0.622h2.97h4.031h0.074L-18.278,8.816z"/>
			</g>
		</g>
		<path fill="#EEAF00" d="M-22.407,8.784h-2.97c-2.217,0-2.561,1.062-0.762,2.359l2.387,1.723l3.27,2.359l-1.254,3.832l-0.902,2.759
			c-0.689,2.108,0.218,2.771,2.016,1.473l2.388-1.723l3.27-2.36l3.269,2.36l2.388,1.723c1.798,1.298,2.705,0.635,2.016-1.473
			l-0.902-2.759l-1.254-3.832l3.27-2.359l2.388-1.723c1.798-1.297,1.455-2.359-0.763-2.359h-2.97h-4.031l-1.254-3.832l-0.902-2.759
			c-0.689-2.107-1.817-2.107-2.507,0l-0.902,2.759l-1.254,3.832H-22.407z"/>
	</g>
	<g display="inline">
		<path fill="#0A50A1" d="M100.686,1.645v24h-96v-24H100.686 M100.686,1.231h-96c-0.229,0-0.413,0.185-0.413,0.413v24
			c0,0.228,0.185,0.413,0.413,0.413h96c0.229,0,0.413-0.185,0.413-0.413v-24C101.099,1.417,100.914,1.231,100.686,1.231
			L100.686,1.231z"/>
	</g>
	<rect x="4.701" y="1.645" display="inline" fill="none" stroke="#1A171B" stroke-width="0.2498" width="24" height="24"/>
	<rect x="28.701" y="1.645" display="inline" fill="none" stroke="#1A171B" stroke-width="0.2498" width="24" height="24"/>
	<rect x="52.755" y="1.645" display="inline" fill="none" stroke="#1A171B" stroke-width="0.2498" width="24" height="24"/>
	<rect x="76.9" y="1.645" display="inline" fill="none" stroke="#1A171B" stroke-width="0.2498" width="24" height="24"/>
</g>
<g id="_x30_1">
</g>
<g id="_x30_2">
</g>
<g id="_x30_3">
</g>
<g id="_x30_4">
</g>
<g id="_x30_5">
	<g opacity="0.2">
		<path d="M84.554,1.362l2.935,6.945l7.514,0.646c0.521,0.046,0.732,0.695,0.336,1.038l-5.698,4.938l1.709,7.344
			c0.117,0.511-0.437,0.912-0.882,0.641l-6.457-3.894l-6.456,3.894c-0.449,0.27-1.001-0.131-0.884-0.641l1.708-7.344l-5.699-4.938
			c-0.396-0.342-0.185-0.993,0.337-1.038l7.513-0.646l2.936-6.944C83.667,0.879,84.351,0.879,84.554,1.362z"/>
	</g>
	<g>
		<g>
			<path fill="#E11F26" d="M66.771,22.5c-0.009,0-0.023-0.001-0.045-0.015l-6.717-4.051l-6.714,4.05l-0.124-0.024l1.762-7.713
				l-5.928-5.136c-0.012-0.01-0.046-0.04-0.027-0.098c0.019-0.059,0.064-0.063,0.08-0.064l7.813-0.671l3.054-7.221
				C59.931,1.542,59.948,1.5,60.009,1.5s0.078,0.042,0.084,0.056l3.053,7.223l7.813,0.671c0.015,0.001,0.061,0.005,0.079,0.064
				c0.019,0.057-0.015,0.086-0.027,0.097l-5.927,5.136l1.777,7.637L66.771,22.5z"/>
			<path fill="#D3202E" d="M60.009,2.642l2.559,6.055l0.234,0.556l0.601,0.052l6.552,0.563l-4.97,4.306l-0.455,0.395l0.137,0.587
				l1.489,6.403l-5.629-3.395l-0.517-0.312l-0.517,0.312l-5.631,3.396l1.489-6.404l0.137-0.587l-0.455-0.395l-4.971-4.307
				l6.552-0.563l0.601-0.052l0.234-0.556L60.009,2.642 M60.009,1c-0.222,0-0.443,0.121-0.545,0.362l-2.936,6.944l-7.513,0.646
				c-0.521,0.045-0.733,0.695-0.337,1.038l5.699,4.938l-1.708,7.344C52.579,22.668,52.893,23,53.248,23
				c0.102,0,0.206-0.027,0.306-0.087l6.456-3.894l6.457,3.894C66.565,22.973,66.67,23,66.771,23c0.354,0,0.668-0.331,0.577-0.729
				l-1.709-7.344l5.698-4.938c0.396-0.342,0.185-0.992-0.336-1.038l-7.514-0.646l-2.935-6.945C60.452,1.121,60.23,1,60.009,1
				L60.009,1z"/>
		</g>
	</g>
	<g>
		<path fill="#9C9E9F" d="M36.009,2l2.789,6.6l0.176,0.417l0.45,0.039l7.141,0.614l-5.416,4.693l-0.342,0.296l0.103,0.44
			l1.624,6.979l-6.136-3.701l-0.388-0.234l-0.388,0.234l-6.138,3.702l1.624-6.98l0.103-0.44l-0.342-0.296l-5.417-4.694l7.141-0.614
			l0.45-0.039l0.176-0.417L36.009,2 M36.009,1c-0.222,0-0.443,0.121-0.545,0.362l-2.936,6.944l-7.513,0.646
			c-0.521,0.045-0.733,0.695-0.337,1.038l5.699,4.938l-1.708,7.344C28.579,22.668,28.893,23,29.248,23
			c0.102,0,0.206-0.027,0.306-0.087l6.456-3.894l6.457,3.894C42.565,22.973,42.67,23,42.771,23c0.354,0,0.668-0.331,0.577-0.729
			l-1.709-7.344l5.698-4.938c0.396-0.342,0.185-0.992-0.336-1.038l-7.514-0.646l-2.935-6.945C36.452,1.121,36.23,1,36.009,1
			L36.009,1z"/>
	</g>
	<g>
		<path fill="#E11F26" d="M12.554,1.362l2.935,6.945l7.514,0.646c0.521,0.046,0.732,0.695,0.336,1.038l-5.698,4.938l1.709,7.344
			c0.117,0.511-0.437,0.912-0.882,0.641l-6.457-3.894l-6.456,3.894c-0.449,0.27-1.001-0.131-0.884-0.641l1.708-7.344L0.679,9.989
			C0.282,9.647,0.494,8.997,1.016,8.952l7.513-0.646l2.936-6.944C11.667,0.879,12.351,0.879,12.554,1.362z"/>
	</g>
	<g opacity="0.2">
		<path d="M180.563,1.362l2.935,6.945l7.514,0.646c0.521,0.046,0.732,0.695,0.336,1.038l-5.698,4.938l1.709,7.344
			c0.117,0.511-0.437,0.912-0.882,0.641l-6.457-3.894l-6.456,3.894c-0.449,0.27-1.001-0.131-0.884-0.641l1.708-7.344l-5.699-4.938
			c-0.396-0.342-0.185-0.993,0.337-1.038l7.513-0.646l2.936-6.944C179.676,0.879,180.359,0.879,180.563,1.362z"/>
	</g>
	<g>
		<g>
			<path fill="#EC7007" d="M162.78,22.5c-0.009,0-0.023-0.001-0.045-0.015l-6.717-4.051l-6.714,4.05l-0.124-0.024l1.762-7.713
				l-5.928-5.136c-0.012-0.01-0.046-0.04-0.027-0.098c0.019-0.059,0.064-0.063,0.08-0.064l7.813-0.671l3.054-7.221
				c0.006-0.015,0.023-0.057,0.084-0.057s0.078,0.042,0.084,0.056l3.053,7.223l7.813,0.671c0.015,0.001,0.061,0.005,0.079,0.064
				c0.019,0.057-0.015,0.086-0.027,0.097l-5.927,5.136l1.777,7.637L162.78,22.5z"/>
			<path fill="#DB6309" d="M156.018,2.642l2.559,6.055l0.234,0.556l0.601,0.052l6.552,0.563l-4.97,4.306l-0.455,0.395l0.137,0.587
				l1.489,6.403l-5.629-3.395l-0.517-0.312l-0.517,0.312l-5.631,3.396l1.489-6.404l0.137-0.587l-0.455-0.395l-4.971-4.307
				l6.552-0.563l0.601-0.052l0.234-0.556L156.018,2.642 M156.018,1c-0.222,0-0.443,0.121-0.545,0.362l-2.936,6.944l-7.513,0.646
				c-0.521,0.045-0.733,0.695-0.337,1.038l5.699,4.938l-1.708,7.344c-0.091,0.397,0.223,0.728,0.578,0.728
				c0.102,0,0.206-0.027,0.306-0.087l6.456-3.894l6.457,3.894c0.099,0.06,0.203,0.087,0.305,0.087c0.354,0,0.668-0.331,0.577-0.729
				l-1.709-7.344l5.698-4.938c0.396-0.342,0.185-0.992-0.336-1.038l-7.514-0.646l-2.935-6.945C156.461,1.121,156.239,1,156.018,1
				L156.018,1z"/>
		</g>
	</g>
	<g>
		<path fill="#9C9E9F" d="M132.018,2l2.789,6.6l0.176,0.417l0.45,0.039l7.141,0.614l-5.416,4.693l-0.342,0.296l0.103,0.44
			l1.624,6.979l-6.136-3.701l-0.388-0.234l-0.388,0.234l-6.137,3.702l1.623-6.98l0.103-0.44l-0.342-0.296l-5.417-4.694l7.141-0.614
			l0.45-0.039l0.176-0.417L132.018,2 M132.018,1c-0.222,0-0.443,0.121-0.545,0.362l-2.936,6.944l-7.513,0.646
			c-0.521,0.045-0.733,0.695-0.337,1.038l5.699,4.938l-1.708,7.344c-0.091,0.397,0.223,0.728,0.578,0.728
			c0.102,0,0.206-0.027,0.306-0.087l6.456-3.894l6.457,3.894c0.099,0.06,0.203,0.087,0.305,0.087c0.354,0,0.668-0.331,0.577-0.729
			l-1.709-7.344l5.698-4.938c0.396-0.342,0.185-0.992-0.336-1.038l-7.514-0.646l-2.935-6.945C132.461,1.121,132.239,1,132.018,1
			L132.018,1z"/>
	</g>
	<g>
		<path fill="#EC7007" d="M108.563,1.362l2.935,6.945l7.514,0.646c0.521,0.046,0.732,0.695,0.336,1.038l-5.698,4.938l1.709,7.344
			c0.117,0.511-0.437,0.912-0.882,0.641l-6.457-3.894l-6.456,3.894c-0.449,0.27-1.001-0.131-0.884-0.641l1.708-7.344l-5.699-4.938
			c-0.396-0.342-0.185-0.993,0.337-1.038l7.513-0.646l2.936-6.944C107.676,0.879,108.359,0.879,108.563,1.362z"/>
	</g>
	<g opacity="0.2">
		<path d="M276.545,1.362l2.935,6.945l7.514,0.646c0.521,0.046,0.732,0.695,0.336,1.038l-5.698,4.938l1.709,7.344
			c0.117,0.511-0.437,0.912-0.882,0.641l-6.457-3.894l-6.456,3.894c-0.449,0.27-1.001-0.131-0.884-0.641l1.708-7.344l-5.699-4.938
			c-0.396-0.342-0.185-0.993,0.337-1.038l7.513-0.646l2.936-6.944C275.658,0.879,276.342,0.879,276.545,1.362z"/>
	</g>
	<g>
		<g>
			<path fill="#FE9F34" d="M258.763,22.5c-0.009,0-0.023-0.001-0.045-0.015l-6.717-4.051l-6.714,4.05l-0.124-0.024l1.762-7.713
				l-5.928-5.136c-0.012-0.01-0.046-0.04-0.027-0.098c0.019-0.059,0.064-0.063,0.08-0.064l7.813-0.671l3.054-7.221
				C251.922,1.542,251.939,1.5,252,1.5s0.078,0.042,0.084,0.056l3.053,7.223l7.813,0.671c0.015,0.001,0.061,0.005,0.079,0.064
				c0.019,0.057-0.015,0.086-0.027,0.097l-5.927,5.136l1.777,7.637L258.763,22.5z"/>
			<path fill="#ED8F32" d="M252,2.642l2.559,6.055l0.234,0.556l0.601,0.052l6.552,0.563l-4.97,4.306l-0.455,0.395l0.137,0.587
				l1.489,6.403l-5.629-3.395l-0.517-0.312l-0.517,0.312l-5.631,3.396l1.489-6.404l0.137-0.587l-0.455-0.395l-4.971-4.307
				l6.552-0.563l0.601-0.052l0.234-0.556L252,2.642 M252,1c-0.222,0-0.443,0.121-0.545,0.362l-2.936,6.944l-7.513,0.646
				c-0.521,0.045-0.733,0.695-0.337,1.038l5.699,4.938l-1.708,7.344C244.57,22.668,244.884,23,245.239,23
				c0.102,0,0.206-0.027,0.306-0.087l6.456-3.894l6.457,3.894c0.099,0.06,0.203,0.087,0.305,0.087c0.354,0,0.668-0.331,0.577-0.729
				l-1.709-7.344l5.698-4.938c0.396-0.342,0.185-0.992-0.336-1.038l-7.514-0.646l-2.935-6.945C252.443,1.121,252.222,1,252,1L252,1z
				"/>
		</g>
	</g>
	<g>
		<path fill="#9C9E9F" d="M228,2l2.789,6.6l0.176,0.417l0.45,0.039l7.141,0.614l-5.416,4.693l-0.342,0.296l0.103,0.44l1.624,6.979
			l-6.136-3.701l-0.388-0.234l-0.388,0.234l-6.137,3.702l1.623-6.98l0.103-0.44l-0.342-0.296l-5.417-4.694l7.141-0.614l0.45-0.039
			l0.176-0.417L228,2 M228,1c-0.222,0-0.443,0.121-0.545,0.362l-2.936,6.944l-7.513,0.646c-0.521,0.045-0.733,0.695-0.337,1.038
			l5.699,4.938l-1.708,7.344C220.57,22.668,220.884,23,221.239,23c0.102,0,0.206-0.027,0.306-0.087l6.456-3.894l6.457,3.894
			c0.099,0.06,0.203,0.087,0.305,0.087c0.354,0,0.668-0.331,0.577-0.729l-1.709-7.344l5.698-4.938
			c0.396-0.342,0.185-0.992-0.336-1.038l-7.514-0.646l-2.935-6.945C228.443,1.121,228.222,1,228,1L228,1z"/>
	</g>
	<g>
		<path fill="#FE9F34" d="M204.545,1.362l2.935,6.945l7.514,0.646c0.521,0.046,0.732,0.695,0.336,1.038l-5.698,4.938l1.709,7.344
			c0.117,0.511-0.437,0.912-0.882,0.641l-6.457-3.894l-6.456,3.894c-0.449,0.27-1.001-0.131-0.884-0.641l1.708-7.344l-5.699-4.938
			c-0.396-0.342-0.185-0.993,0.337-1.038l7.513-0.646l2.936-6.944C203.658,0.879,204.342,0.879,204.545,1.362z"/>
	</g>
	<g opacity="0.2">
		<path d="M372.55,1.362l2.935,6.945l7.514,0.646c0.521,0.046,0.732,0.695,0.336,1.038l-5.698,4.938l1.709,7.344
			c0.117,0.511-0.437,0.912-0.882,0.641l-6.457-3.894l-6.456,3.894c-0.449,0.27-1.001-0.131-0.884-0.641l1.708-7.344l-5.699-4.938
			c-0.396-0.342-0.185-0.993,0.337-1.038l7.513-0.646l2.936-6.944C371.663,0.879,372.347,0.879,372.55,1.362z"/>
	</g>
	<g>
		<g>
			<path fill="#FFC200" d="M354.768,22.5c-0.009,0-0.023-0.001-0.045-0.015l-6.717-4.051l-6.714,4.05l-0.124-0.024l1.762-7.713
				l-5.928-5.136c-0.012-0.01-0.046-0.04-0.027-0.098c0.019-0.059,0.064-0.063,0.08-0.064l7.813-0.671l3.054-7.221
				c0.006-0.015,0.023-0.057,0.084-0.057s0.078,0.042,0.084,0.056l3.053,7.223l7.813,0.671c0.015,0.001,0.061,0.005,0.079,0.064
				c0.019,0.057-0.015,0.086-0.027,0.097l-5.927,5.136l1.777,7.637L354.768,22.5z"/>
			<path fill="#F2AD00" d="M348.005,2.642l2.559,6.055l0.234,0.556l0.601,0.052l6.552,0.563l-4.97,4.306l-0.455,0.395l0.137,0.587
				l1.489,6.403l-5.629-3.395l-0.517-0.312l-0.517,0.312l-5.631,3.396l1.489-6.404l0.137-0.587l-0.455-0.395l-4.971-4.307
				l6.552-0.563l0.601-0.052l0.234-0.556L348.005,2.642 M348.005,1c-0.222,0-0.443,0.121-0.545,0.362l-2.936,6.944l-7.513,0.646
				c-0.521,0.045-0.733,0.695-0.337,1.038l5.699,4.938l-1.708,7.344c-0.091,0.397,0.223,0.728,0.578,0.728
				c0.102,0,0.206-0.027,0.306-0.087l6.456-3.894l6.457,3.894c0.099,0.06,0.203,0.087,0.305,0.087c0.354,0,0.668-0.331,0.577-0.729
				l-1.709-7.344l5.698-4.938c0.396-0.342,0.185-0.992-0.336-1.038l-7.514-0.646l-2.935-6.945C348.448,1.121,348.227,1,348.005,1
				L348.005,1z"/>
		</g>
	</g>
	<g>
		<path fill="#9C9E9F" d="M324.005,2l2.789,6.6l0.176,0.417l0.45,0.039l7.141,0.614l-5.416,4.693l-0.342,0.296l0.103,0.44
			l1.624,6.979l-6.136-3.701l-0.388-0.234l-0.388,0.234l-6.138,3.702l1.624-6.98l0.103-0.44l-0.342-0.296l-5.417-4.694l7.141-0.614
			l0.45-0.039l0.176-0.417L324.005,2 M324.005,1c-0.222,0-0.443,0.121-0.545,0.362l-2.936,6.944l-7.513,0.646
			c-0.521,0.045-0.733,0.695-0.337,1.038l5.699,4.938l-1.708,7.344c-0.091,0.397,0.223,0.728,0.578,0.728
			c0.102,0,0.206-0.027,0.306-0.087l6.456-3.894l6.457,3.894c0.099,0.06,0.203,0.087,0.305,0.087c0.354,0,0.668-0.331,0.577-0.729
			l-1.709-7.344l5.698-4.938c0.396-0.342,0.185-0.992-0.336-1.038l-7.514-0.646l-2.935-6.945C324.448,1.121,324.227,1,324.005,1
			L324.005,1z"/>
	</g>
	<g>
		<path fill="#FFC200" d="M300.55,1.362l2.935,6.945l7.514,0.646c0.521,0.046,0.732,0.695,0.336,1.038l-5.698,4.938l1.709,7.344
			c0.117,0.511-0.437,0.912-0.882,0.641l-6.457-3.894l-6.456,3.894c-0.449,0.27-1.001-0.131-0.884-0.641l1.708-7.344l-5.699-4.938
			c-0.396-0.342-0.185-0.993,0.337-1.038l7.513-0.646l2.936-6.944C299.663,0.879,300.347,0.879,300.55,1.362z"/>
	</g>
	<g opacity="0.2">
		<path d="M468.538,1.362l2.935,6.945l7.514,0.646c0.521,0.046,0.732,0.695,0.336,1.038l-5.698,4.938l1.709,7.344
			c0.117,0.511-0.437,0.912-0.882,0.641l-6.457-3.894l-6.456,3.894c-0.449,0.27-1.001-0.131-0.884-0.641l1.708-7.344l-5.699-4.938
			c-0.396-0.342-0.185-0.993,0.337-1.038l7.513-0.646l2.936-6.944C467.651,0.879,468.335,0.879,468.538,1.362z"/>
	</g>
	<g>
		<g>
			<path fill="#7AB704" d="M450.756,22.5c-0.009,0-0.023-0.001-0.045-0.015l-6.717-4.051l-6.714,4.05l-0.124-0.024l1.762-7.713
				l-5.928-5.136c-0.012-0.01-0.046-0.04-0.027-0.098c0.019-0.059,0.064-0.063,0.08-0.064l7.813-0.671l3.054-7.221
				c0.006-0.015,0.023-0.057,0.084-0.057s0.078,0.042,0.084,0.056l3.053,7.223l7.813,0.671c0.015,0.001,0.061,0.005,0.079,0.064
				c0.019,0.057-0.015,0.086-0.027,0.097l-5.927,5.136l1.777,7.637L450.756,22.5z"/>
			<path fill="#76A505" d="M443.993,2.642l2.559,6.055l0.234,0.556l0.601,0.052l6.552,0.563l-4.97,4.306l-0.455,0.395l0.137,0.587
				l1.489,6.403l-5.629-3.395l-0.517-0.312l-0.517,0.312l-5.631,3.396l1.489-6.404l0.137-0.587l-0.455-0.395l-4.971-4.307
				l6.552-0.563l0.601-0.052l0.234-0.556L443.993,2.642 M443.993,1c-0.222,0-0.443,0.121-0.545,0.362l-2.936,6.944L433,8.952
				c-0.521,0.045-0.733,0.695-0.337,1.038l5.699,4.938l-1.708,7.344c-0.091,0.397,0.223,0.728,0.578,0.728
				c0.102,0,0.206-0.027,0.306-0.087l6.456-3.894l6.457,3.894c0.099,0.06,0.203,0.087,0.305,0.087c0.354,0,0.668-0.331,0.577-0.729
				l-1.709-7.344l5.698-4.938c0.396-0.342,0.185-0.992-0.336-1.038l-7.514-0.646l-2.935-6.945C444.437,1.121,444.215,1,443.993,1
				L443.993,1z"/>
		</g>
	</g>
	<g>
		<path fill="#9C9E9F" d="M419.993,2l2.789,6.6l0.176,0.417l0.45,0.039l7.141,0.614l-5.416,4.693l-0.342,0.296l0.103,0.44
			l1.624,6.979l-6.136-3.701l-0.388-0.234l-0.388,0.234l-6.138,3.702l1.624-6.98l0.103-0.44l-0.342-0.296l-5.417-4.694l7.141-0.614
			l0.45-0.039l0.176-0.417L419.993,2 M419.993,1c-0.222,0-0.443,0.121-0.545,0.362l-2.936,6.944L409,8.952
			c-0.521,0.045-0.733,0.695-0.337,1.038l5.699,4.938l-1.708,7.344c-0.091,0.397,0.223,0.728,0.578,0.728
			c0.102,0,0.206-0.027,0.306-0.087l6.456-3.894l6.457,3.894c0.099,0.06,0.203,0.087,0.305,0.087c0.354,0,0.668-0.331,0.577-0.729
			l-1.709-7.344l5.698-4.938c0.396-0.342,0.185-0.992-0.336-1.038l-7.514-0.646l-2.935-6.945C420.437,1.121,420.215,1,419.993,1
			L419.993,1z"/>
	</g>
	<g>
		<path fill="#7AB704" d="M396.538,1.362l2.935,6.945l7.514,0.646c0.521,0.046,0.732,0.695,0.336,1.038l-5.698,4.938l1.709,7.344
			c0.117,0.511-0.437,0.912-0.882,0.641l-6.457-3.894l-6.456,3.894c-0.449,0.27-1.001-0.131-0.884-0.641l1.708-7.344l-5.699-4.938
			c-0.396-0.342-0.185-0.993,0.337-1.038l7.513-0.646l2.936-6.944C395.651,0.879,396.335,0.879,396.538,1.362z"/>
	</g>
</g>
</svg>
